<svg width="460" height="562" viewBox="0 0 460 562" fill="none" xmlns="http://www.w3.org/2000/svg">
<path d="M193.157 53.7305C183.196 41.5479 166.596 13.8601 148.889 5C133.752 13.0792 109.412 57.9942 85.1009 111.194C82.7512 116.336 80.4017 121.555 78.0608 126.826C45.9668 196.599 16.0861 285.2 7.23261 362.726C-0.514223 425.854 11.6594 486.767 47.0734 519.993C75.8474 547.68 120.115 556.54 169.916 556.54H290.545C332.599 558.755 372.44 553.218 400.108 534.39C443.268 502.272 460.975 436.929 453.229 367.156C444.375 292.953 415.601 202.137 383.507 127.934C381.145 122.28 378.754 116.703 376.344 111.228C352.798 57.7205 327.533 14.0425 310.466 5C294.972 13.8601 279.478 34.9028 268.411 53.7305C246.278 54.838 213.077 54.838 193.157 53.7305Z" fill="#D0BCFF"/>
<path d="M91.341 93.6009C66.9939 85.8483 42.6467 81.4182 27.153 82.5258M85.8076 111.321C61.4604 106.891 37.1132 107.999 23.833 115.751M369.12 93.6009C394.574 85.8483 420.028 81.4182 434.415 82.5258M375.76 111.321C403.428 106.891 426.668 107.999 437.735 115.751M148.889 5C166.596 13.8601 183.196 41.5479 193.157 53.7305C213.077 54.838 246.278 54.838 268.411 53.7305C279.478 34.9028 294.972 13.8601 310.466 5C329.279 14.9676 358.053 67.0206 383.507 127.934C415.601 202.137 444.375 292.953 453.229 367.156C460.975 436.929 443.268 502.272 400.108 534.39C372.44 553.218 332.599 558.755 290.545 556.54H169.916C120.115 556.54 75.8474 547.68 47.0734 519.993C11.6594 486.767 -0.514223 425.854 7.23261 362.726C16.0861 285.2 45.9668 196.599 78.0608 126.826C104.621 67.0206 132.289 13.8601 148.889 5Z" stroke="#D0BCFF" stroke-width="10" stroke-linecap="round" stroke-linejoin="round"/>
</svg>
